<svg width="32" height="32" viewBox="0 0 32 32" fill="none" xmlns="http://www.w3.org/2000/svg">
<path d="M17.6986 18.274C18.4895 17.2083 18.653 15.795 18.1264 14.5735C18.1109 14.5803 18.0946 14.5848 18.0794 14.5913C18.0644 14.5977 18.0484 14.603 18.0327 14.6092C17.9438 14.6447 17.8525 14.6744 17.7597 14.6979L17.6857 14.7144C17.5938 14.7345 17.5005 14.7476 17.4067 14.7542C17.3885 14.7558 17.3712 14.7589 17.353 14.7598C17.2417 14.7652 17.1305 14.7616 17.0199 14.7496C17.0011 14.7474 16.9831 14.7423 16.9647 14.7398C16.8751 14.7273 16.7867 14.7091 16.6997 14.6854C16.666 14.6759 16.6332 14.6652 16.5999 14.6542C16.5244 14.6286 16.4503 14.5991 16.3777 14.5656C16.3471 14.551 16.3158 14.5383 16.2862 14.5225C16.0825 14.42 15.8987 14.2818 15.7431 14.1145C15.7187 14.0896 15.6976 14.0631 15.6744 14.0373C15.6226 13.9773 15.5738 13.9147 15.5283 13.8498C15.5078 13.8198 15.4872 13.7906 15.4681 13.7596C15.4232 13.6861 15.3825 13.6098 15.3464 13.5315C15.3365 13.5094 15.3241 13.4888 15.3147 13.4665C15.2735 13.3667 15.2394 13.2637 15.213 13.1587C15.2065 13.131 15.2028 13.104 15.1969 13.0763C15.18 12.9959 15.1673 12.9148 15.1591 12.833C15.1558 12.7967 15.1525 12.762 15.1523 12.7239C15.1494 12.645 15.1505 12.5659 15.1558 12.4872C15.1581 12.4544 15.1579 12.4224 15.1625 12.3886C15.1639 12.3751 15.163 12.3618 15.165 12.3487C13.3886 12.141 11.721 13.2523 11.2098 14.9847C10.6985 16.7169 11.4909 18.5702 13.0893 19.3805C14.6879 20.1909 16.631 19.7243 17.6986 18.274Z" fill="white"/>
<path d="M6.24943 20.2499C6.40836 20.1762 6.54654 20.0631 6.65058 19.9211C6.97007 19.4895 6.92167 18.8849 6.53729 18.511C6.15314 18.1373 5.55332 18.1115 5.13905 18.451C4.72494 18.7905 4.62585 19.3889 4.90829 19.8465C5.19067 20.3037 5.76585 20.4768 6.24943 20.2499Z" fill="white"/>
<path d="M21.9287 21.448C24.8772 17.4368 24.0509 11.7688 20.0832 8.78817C16.1152 5.80734 10.5086 6.64289 7.56028 10.654C6.1793 12.5152 5.56987 14.8471 5.86131 17.155C5.97536 17.1584 6.08877 17.171 6.20069 17.193C6.22007 17.1972 6.23833 17.2042 6.25621 17.2068C6.37313 17.2335 6.48779 17.27 6.59871 17.3166C6.63272 17.3307 6.66636 17.3447 6.69825 17.3593C7.27609 17.6242 7.70301 18.1406 7.85869 18.7623C8.01437 19.384 7.88181 20.0438 7.49841 20.5545C7.41335 20.6679 7.31748 20.7723 7.2123 20.8661C7.20483 20.8763 7.19658 20.8876 7.18541 20.8952C7.77051 21.8341 8.5233 22.6543 9.40588 23.3139C13.3749 26.2887 18.977 25.4541 21.9287 21.448ZM18.7487 10.425C18.7257 10.4005 18.7063 10.3728 18.6917 10.3423C18.6718 10.3143 18.657 10.283 18.6478 10.2497C18.6353 10.2137 18.6265 10.1807 18.618 10.1477C18.6112 10.0782 18.6163 10.0081 18.633 9.94005C18.649 9.87253 18.6779 9.80868 18.7184 9.75231C18.8449 9.57795 19.0633 9.49842 19.2706 9.55106C19.4782 9.60362 19.6338 9.77784 19.664 9.99182C19.6937 10.2049 19.5936 10.415 19.4105 10.5242C19.3509 10.5599 19.286 10.5851 19.2181 10.5985C19.0797 10.6156 18.9402 10.5794 18.8269 10.497C18.7989 10.475 18.773 10.451 18.7487 10.425ZM10.941 13.1938C12.0097 11.7311 13.8106 11.0138 15.5792 11.3457C16.2909 10.4631 17.5639 10.3026 18.4681 10.9819C19.3723 11.6611 19.5875 12.9395 18.9567 13.8828C20.0154 15.9871 19.3982 18.5578 17.5026 19.9368C15.6074 21.316 13.0004 21.0917 11.3626 19.4087C9.72498 17.7258 9.54591 15.087 10.941 13.1938Z" fill="white"/>
<path d="M17.9611 13.4198C18.0091 13.3737 18.0532 13.3233 18.0931 13.2698C18.44 12.7979 18.3428 12.1311 17.8761 11.7804C17.4093 11.4297 16.7496 11.5281 16.4028 11.9998C16.3625 12.0555 16.3271 12.1146 16.2968 12.1763C16.0761 12.6372 16.2113 13.1914 16.6186 13.4958C17.0259 13.8001 17.59 13.7682 17.9611 13.4198Z" fill="white"/>
<path d="M10.8888 2.55025C11.3425 1.93392 11.2977 1.07848 10.7825 0.513996C10.267 -0.0506439 9.42711 -0.164201 8.78299 0.24366C8.1393 0.651472 7.87367 1.46511 8.15139 2.18015C8.2299 2.38839 8.35223 2.57709 8.50968 2.73327C8.56266 2.78574 8.6192 2.83471 8.67887 2.8795C9.37896 3.40548 10.3686 3.25805 10.8888 2.55025Z" fill="white"/>
<path d="M26.576 24.9418C28.2114 22.7246 29.2017 20.0896 29.4356 17.334C29.2884 17.3107 29.1429 17.2772 29.0007 17.2333C28.9619 17.2216 28.9239 17.2065 28.8855 17.1935C28.7695 17.1535 28.6558 17.1067 28.545 17.0535C28.5031 17.0334 28.462 17.0144 28.4216 16.9926C28.2796 16.9189 28.1435 16.8338 28.0143 16.7384C27.2635 16.1842 26.7952 15.3216 26.7354 14.3836C26.6759 13.4459 27.0311 12.5299 27.7053 11.8831C27.7435 11.8454 27.78 11.8151 27.8181 11.7813C27.9131 11.6975 28.0125 11.6193 28.1161 11.547C28.1576 11.5186 28.1982 11.4891 28.2409 11.4624C28.3844 11.3709 28.5348 11.2913 28.6908 11.224C26.3465 4.30246 19.3781 0.126041 12.2462 1.3677L12.2459 1.38075C12.2571 1.52157 12.2568 1.66316 12.2452 1.80402C12.2427 1.83652 12.2389 1.8696 12.2353 1.90189C12.2209 2.03388 12.1969 2.16472 12.1637 2.293C12.1604 2.30372 12.1598 2.3146 12.1563 2.32532C12.1169 2.46178 12.0662 2.59471 12.0059 2.72296C11.9912 2.75432 11.9758 2.78521 11.9603 2.81595C11.5782 3.57932 10.8545 4.10845 10.0181 4.23678C9.18139 4.36497 8.33551 4.07621 7.74679 3.46175C7.71578 3.43071 7.68911 3.39547 7.66024 3.36244C7.59844 3.29363 7.54069 3.22143 7.48657 3.14646C7.47476 3.12946 7.45926 3.11467 7.44752 3.09767C5.66951 4.11602 4.12365 5.50139 2.91028 7.16338C-1.94594 13.77 -0.584945 23.1056 5.9501 28.015C12.4853 32.9244 21.7198 31.5485 26.576 24.9418ZM4.55045 20.9952C3.61691 20.294 3.42247 18.9602 4.11617 18.0164C4.3082 17.7569 4.55693 17.5458 4.84319 17.3995C4.21872 12.6358 7.00124 8.08697 11.4959 6.5236C15.9907 4.96006 20.9526 6.81511 23.3599 10.9587C25.767 15.1023 24.9526 20.3869 21.4126 23.5938C17.8728 26.8007 12.5875 27.0417 8.77651 24.17C7.76329 23.4072 6.90445 22.4548 6.24709 21.3642C5.65559 21.4948 5.0366 21.3604 4.55045 20.9952Z" fill="white"/>
<path d="M29.4591 12.0914C28.4881 12.2987 27.792 13.1633 27.7883 14.1666C27.7847 15.1698 28.4744 16.0395 29.4438 16.2543C30.4132 16.469 31.3992 15.9703 31.8108 15.0575C32.2224 14.1446 31.9477 13.065 31.1515 12.4662C30.6657 12.1041 30.0501 11.9679 29.4591 12.0914Z" fill="white"/>
<path d="M22.4249 22.7967L20.4171 24.8113C20.1384 25.091 20.1384 25.5446 20.4171 25.8243L26.067 31.4935C26.3458 31.7733 26.7978 31.7733 27.0766 31.4935L29.0843 29.4789C29.3631 29.1992 29.3631 28.7456 29.0843 28.4659L23.4344 22.7967C23.1557 22.517 22.7037 22.517 22.4249 22.7967Z" fill="white"/>
<path d="M19.9126 10.0656C19.9126 9.66854 19.5942 9.34662 19.2014 9.34662C18.8086 9.34662 18.4902 9.66854 18.4902 10.0656C18.4902 10.4628 18.8086 10.7847 19.2014 10.7847C19.5942 10.7847 19.9126 10.4628 19.9126 10.0656Z" fill="white"/>
</svg>
